<?xml version="1.0" encoding="utf-8"?>
<!-- Generator: Adobe Illustrator 16.0.0, SVG Export Plug-In . SVG Version: 6.00 Build 0)  -->
<!DOCTYPE svg PUBLIC "-//W3C//DTD SVG 1.1//EN" "http://www.w3.org/Graphics/SVG/1.1/DTD/svg11.dtd">
<svg version="1.1" id="Layer_1" xmlns="http://www.w3.org/2000/svg" xmlns:xlink="http://www.w3.org/1999/xlink" x="0px" y="0px"
	 width="202.9px" height="39.1px" viewBox="0 0 202.9 39.1" style="enable-background:new 0 0 202.9 39.1;" xml:space="preserve">
<style type="text/css">
<![CDATA[
	.st0{clip-path:url(#SVGID_30_);fill:#575756;}
	.st1{clip-path:url(#SVGID_9_);fill:url(#SVGID_10_);}
	.st2{clip-path:url(#SVGID_17_);fill:#575756;}
	.st3{clip-path:url(#SVGID_34_);fill:#878787;}
	.st4{clip-path:url(#SVGID_22_);fill:#575756;}
	.st5{fill:#575756;}
	.st6{clip-path:url(#SVGID_40_);fill:url(#SVGID_41_);}
	.st7{clip-path:url(#SVGID_7_);fill:#575756;}
	.st8{clip-path:url(#SVGID_12_);fill:#575756;}
	.st9{clip-path:url(#SVGID_14_);fill:url(#SVGID_15_);}
	.st10{clip-path:url(#SVGID_2_);fill:#575756;}
	.st11{clip-path:url(#SVGID_26_);fill:#575756;}
	.st12{clip-path:url(#SVGID_4_);fill:url(#SVGID_5_);}
	.st13{clip-path:url(#SVGID_38_);fill:#575756;}
	.st14{clip-path:url(#SVGID_45_);fill:url(#SVGID_46_);}
	.st15{clip-path:url(#SVGID_19_);fill:url(#SVGID_20_);}
	.st16{clip-path:url(#SVGID_43_);fill:#FFFFFF;}
]]>
</style>
<g>
	<g>
		<defs>
			<rect id="SVGID_21_" y="1" width="202.9" height="38.1"/>
		</defs>
		<clipPath id="SVGID_2_">
			<use xlink:href="#SVGID_21_"  style="overflow:visible;"/>
		</clipPath>
		<path class="st10" d="M16,38.7l0.2,0.4h10.2L42.4,1H30.6l-3,7.6L16,38.7z M46,39.1h10.2V1H46V39.1z M93.6,36.5
			c1.9-1.7,2.9-4.1,2.9-7.1V25c0-3.2-0.9-5.5-2.7-6.9c-1.6-1.2-4.1-1.9-7.5-1.9H72.9c-1.9,0-2.9-1.1-2.9-3.3v-0.1
			c0-0.9,0.2-1.6,0.7-2.3c0.5-0.7,1.1-1,2-1h23.8V1H70c-3.4,0-5.9,0.6-7.5,1.8c-1.8,1.4-2.7,3.6-2.7,6.8v4.8c0,3,1,5.4,2.9,7.1
			c1.9,1.7,4.4,2.6,7.4,2.6h13.6c1.8,0.3,2.7,1.4,2.7,3.2v0.1c0,2.1-1,3.2-2.9,3.2H59.7v8.4h26.5C89.2,39.1,91.7,38.2,93.6,36.5
			 M109.9,39.1h26.3V1H126v29.4h-11.6c-1.5,0-2.6-0.2-3.2-0.7c-0.8-0.6-1.2-1.6-1.2-3V1H99.7v28.4c0,3.1,0.9,5.5,2.8,7.2
			C104.3,38.3,106.8,39.1,109.9,39.1 M202.9,39.1V10.7c0-3.1-0.9-5.6-2.8-7.3c-1.8-1.6-4.3-2.4-7.4-2.4H140v38.1h10.2V9.7h11.6
			c1.5,0,2.6,0.2,3.3,0.7c0.8,0.5,1.2,1.5,1.2,3v25.8h10.2V9.7h11.6c1.5,0,2.6,0.2,3.3,0.7c0.8,0.5,1.2,1.5,1.2,3v25.8H202.9z"/>
	</g>
	<g>
		<defs>
			<polygon id="SVGID_23_" points="0,1 16,38.7 21.3,24.9 11.8,1 			"/>
		</defs>
		<clipPath id="SVGID_4_">
			<use xlink:href="#SVGID_23_"  style="overflow:visible;"/>
		</clipPath>
	</g>
	<g>
		<defs>
			<rect id="SVGID_25_" width="202.9" height="38.1"/>
		</defs>
		<clipPath id="SVGID_5_">
			<use xlink:href="#SVGID_25_"  style="overflow:visible;"/>
		</clipPath>
		<path style="clip-path:url(#SVGID_5_);fill:#575756;" d="M16,37.7l0.2,0.4h10.2L42.4,0H30.6l-3,7.6L16,37.7z M46,38.1h10.2V0H46
			V38.1z M93.6,35.5c1.9-1.7,2.9-4.1,2.9-7.1V24c0-3.2-0.9-5.5-2.7-6.9c-1.6-1.2-4.1-1.9-7.5-1.9H72.9c-1.9,0-2.9-1.1-2.9-3.3v-0.1
			c0-0.9,0.2-1.6,0.7-2.3c0.5-0.7,1.1-1,2-1h23.8V0H70c-3.4,0-5.9,0.6-7.5,1.8c-1.8,1.4-2.7,3.6-2.7,6.8v4.8c0,3,1,5.4,2.9,7.1
			c1.9,1.7,4.4,2.6,7.4,2.6h13.6c1.8,0.3,2.7,1.4,2.7,3.2v0.1c0,2.1-1,3.2-2.9,3.2H59.7v8.4h26.5C89.2,38.1,91.7,37.2,93.6,35.5
			 M109.9,38.1h26.3V0H126v29.4h-11.6c-1.5,0-2.6-0.2-3.2-0.7c-0.8-0.6-1.2-1.6-1.2-3V0H99.7v28.4c0,3.1,0.9,5.5,2.8,7.2
			C104.3,37.3,106.8,38.1,109.9,38.1 M202.9,38.1V9.7c0-3.1-0.9-5.6-2.8-7.3c-1.8-1.6-4.3-2.4-7.4-2.4H140v38.1h10.2V8.7h11.6
			c1.5,0,2.6,0.2,3.3,0.7c0.8,0.5,1.2,1.5,1.2,3v25.8h10.2V8.7h11.6c1.5,0,2.6,0.2,3.3,0.7c0.8,0.5,1.2,1.5,1.2,3v25.8H202.9z"/>
	</g>
	<g>
		<defs>
			<polygon id="SVGID_27_" points="0,0 16,37.7 21.3,23.9 11.8,0 			"/>
		</defs>
		<clipPath id="SVGID_7_">
			<use xlink:href="#SVGID_27_"  style="overflow:visible;"/>
		</clipPath>
	</g>
	<g>
		<defs>
			<rect id="SVGID_29_" y="1" width="202.9" height="38.1"/>
		</defs>
		<clipPath id="SVGID_9_">
			<use xlink:href="#SVGID_29_"  style="overflow:visible;"/>
		</clipPath>
		<path style="clip-path:url(#SVGID_9_);fill:#575756;" d="M16,38.7l0.2,0.4h10.2L42.4,1H30.6l-3,7.6L16,38.7z M46,39.1h10.2V1H46
			V39.1z M93.6,36.5c1.9-1.7,2.9-4.1,2.9-7.1V25c0-3.2-0.9-5.5-2.7-6.9c-1.6-1.2-4.1-1.9-7.5-1.9H72.9c-1.9,0-2.9-1.1-2.9-3.3v-0.1
			c0-0.9,0.2-1.6,0.7-2.3c0.5-0.7,1.1-1,2-1h23.8V1H70c-3.4,0-5.9,0.6-7.5,1.8c-1.8,1.4-2.7,3.6-2.7,6.8v4.8c0,3,1,5.4,2.9,7.1
			c1.9,1.7,4.4,2.6,7.4,2.6h13.6c1.8,0.3,2.7,1.4,2.7,3.2v0.1c0,2.1-1,3.2-2.9,3.2H59.7v8.4h26.5C89.2,39.1,91.7,38.2,93.6,36.5
			 M109.9,39.1h26.3V1H126v29.4h-11.6c-1.5,0-2.6-0.2-3.2-0.7c-0.8-0.6-1.2-1.6-1.2-3V1H99.7v28.4c0,3.1,0.9,5.5,2.8,7.2
			C104.3,38.3,106.8,39.1,109.9,39.1 M202.9,39.1V10.7c0-3.1-0.9-5.6-2.8-7.3c-1.8-1.6-4.3-2.4-7.4-2.4H140v38.1h10.2V9.7h11.6
			c1.5,0,2.6,0.2,3.3,0.7c0.8,0.5,1.2,1.5,1.2,3v25.8h10.2V9.7h11.6c1.5,0,2.6,0.2,3.3,0.7c0.8,0.5,1.2,1.5,1.2,3v25.8H202.9z"/>
	</g>
	<g>
		<defs>
			<polygon id="SVGID_31_" points="0,1 16,38.7 21.3,24.9 11.8,1 			"/>
		</defs>
		<clipPath id="SVGID_10_">
			<use xlink:href="#SVGID_31_"  style="overflow:visible;"/>
		</clipPath>
	</g>
	<g>
		<defs>
			<rect id="SVGID_33_" width="202.9" height="38.1"/>
		</defs>
		<clipPath id="SVGID_12_">
			<use xlink:href="#SVGID_33_"  style="overflow:visible;"/>
		</clipPath>
		<path style="clip-path:url(#SVGID_12_);fill:#878787;" d="M16,37.7l0.2,0.4h10.2L42.4,0H30.6l-3,7.6L16,37.7z M46,38.1h10.2V0H46
			V38.1z M93.6,35.5c1.9-1.7,2.9-4.1,2.9-7.1V24c0-3.2-0.9-5.5-2.7-6.9c-1.6-1.2-4.1-1.9-7.5-1.9H72.9c-1.9,0-2.9-1.1-2.9-3.3v-0.1
			c0-0.9,0.2-1.6,0.7-2.3c0.5-0.7,1.1-1,2-1h23.8V0H70c-3.4,0-5.9,0.6-7.5,1.8c-1.8,1.4-2.7,3.6-2.7,6.8v4.8c0,3,1,5.4,2.9,7.1
			c1.9,1.7,4.4,2.6,7.4,2.6h13.6c1.8,0.3,2.7,1.4,2.7,3.2v0.1c0,2.1-1,3.2-2.9,3.2H59.7v8.4h26.5C89.2,38.1,91.7,37.2,93.6,35.5
			 M109.9,38.1h26.3V0H126v29.4h-11.6c-1.5,0-2.6-0.2-3.2-0.7c-0.8-0.6-1.2-1.6-1.2-3V0H99.7v28.4c0,3.1,0.9,5.5,2.8,7.2
			C104.3,37.3,106.8,38.1,109.9,38.1 M202.9,38.1V9.7c0-3.1-0.9-5.6-2.8-7.3c-1.8-1.6-4.3-2.4-7.4-2.4H140v38.1h10.2V8.7h11.6
			c1.5,0,2.6,0.2,3.3,0.7c0.8,0.5,1.2,1.5,1.2,3v25.8h10.2V8.7h11.6c1.5,0,2.6,0.2,3.3,0.7c0.8,0.5,1.2,1.5,1.2,3v25.8H202.9z"/>
	</g>
	<g>
		<defs>
			<polygon id="SVGID_35_" points="0,0 16,37.7 21.3,23.9 11.8,0 			"/>
		</defs>
		<use xlink:href="#SVGID_35_"  style="overflow:visible;fill:#8C8C8C;"/>
		<clipPath id="SVGID_14_">
			<use xlink:href="#SVGID_35_"  style="overflow:visible;"/>
		</clipPath>
	</g>
</g>
</svg>
