<?xml version="1.0" encoding="utf-8"?>
<!-- Generator: Adobe Illustrator 16.0.0, SVG Export Plug-In . SVG Version: 6.00 Build 0)  -->
<!DOCTYPE svg PUBLIC "-//W3C//DTD SVG 1.1//EN" "http://www.w3.org/Graphics/SVG/1.1/DTD/svg11.dtd">
<svg version="1.1" id="Layer_1" xmlns="http://www.w3.org/2000/svg" xmlns:xlink="http://www.w3.org/1999/xlink" x="0px" y="0px"
	 width="299.9px" height="91.4px" viewBox="0 0 299.9 91.4" style="enable-background:new 0 0 299.9 91.4;" xml:space="preserve">
<style type="text/css">
<![CDATA[
	.st0{clip-path:url(#SVGID_2_);fill:url(#SVGID_3_);}
	.st1{fill:#58595B;}
]]>
</style>
<g>
	<path d="M45.4,85.9V70.3h5.2c1.2,0,2.3,0.2,3.2,0.6c0.9,0.4,1.7,1,2.3,1.7c0.6,0.7,1.1,1.5,1.4,2.5c0.3,0.9,0.5,2,0.5,3
		c0,1.2-0.2,2.3-0.5,3.2c-0.3,1-0.8,1.8-1.5,2.5c-0.6,0.7-1.4,1.2-2.3,1.6s-1.9,0.6-3.1,0.6H45.4z M56.9,78.1c0-1-0.1-1.9-0.4-2.7
		c-0.3-0.8-0.7-1.5-1.2-2.1c-0.5-0.6-1.2-1.1-2-1.4c-0.8-0.3-1.7-0.5-2.7-0.5h-4.1v13.6h4.1c1,0,1.9-0.2,2.7-0.5
		c0.8-0.3,1.4-0.8,2-1.4c0.5-0.6,0.9-1.3,1.2-2.2C56.8,80,56.9,79.1,56.9,78.1z"/>
	<path d="M60.9,71.9v-2H62v2H60.9z M60.9,85.9V74.5H62v11.5H60.9z"/>
	<path d="M70,86.1c-0.8,0-1.5-0.2-2.2-0.5s-1.2-0.8-1.7-1.3c-0.5-0.5-0.9-1.2-1.1-1.9c-0.3-0.7-0.4-1.4-0.4-2.2
		c0-0.8,0.1-1.5,0.4-2.2c0.3-0.7,0.6-1.4,1.1-1.9s1-1,1.7-1.3c0.7-0.3,1.4-0.5,2.1-0.5c1,0,1.9,0.3,2.6,0.8c0.7,0.5,1.4,1.2,1.9,1.9
		v-2.5h1v11.7c0,0.8-0.1,1.5-0.4,2c-0.3,0.6-0.7,1.1-1.2,1.5c-0.5,0.4-1.1,0.7-1.7,0.9c-0.7,0.2-1.3,0.3-2.1,0.3
		c-0.7,0-1.3-0.1-1.8-0.2c-0.5-0.1-1-0.3-1.4-0.5s-0.8-0.5-1.1-0.8c-0.3-0.3-0.6-0.7-0.8-1.1l0.7-0.5c0.5,0.8,1.1,1.3,1.8,1.7
		c0.8,0.4,1.6,0.5,2.5,0.5c0.6,0,1.1-0.1,1.7-0.2c0.5-0.2,1-0.4,1.4-0.7c0.4-0.3,0.7-0.7,0.9-1.2c0.2-0.5,0.3-1,0.3-1.7v-2.5
		c-0.5,0.7-1.1,1.3-1.9,1.8C71.7,85.9,70.9,86.1,70,86.1z M70.3,85.2c0.5,0,1-0.1,1.4-0.3c0.5-0.2,0.9-0.4,1.2-0.7
		c0.4-0.3,0.7-0.6,0.9-1c0.2-0.4,0.4-0.7,0.4-1.1v-3.8c-0.2-0.4-0.4-0.8-0.7-1.2c-0.3-0.4-0.6-0.7-1-1c-0.4-0.3-0.8-0.5-1.2-0.6
		c-0.4-0.2-0.9-0.2-1.3-0.2c-0.7,0-1.3,0.1-1.8,0.4c-0.5,0.3-1,0.7-1.4,1.1c-0.4,0.5-0.7,1-0.9,1.6c-0.2,0.6-0.3,1.2-0.3,1.8
		c0,0.7,0.1,1.3,0.4,1.9c0.2,0.6,0.6,1.1,1,1.6s0.9,0.8,1.5,1.1C69,85,69.6,85.2,70.3,85.2z"/>
	<path d="M78.8,71.9v-2h1.1v2H78.8z M78.8,85.9V74.5h1.1v11.5H78.8z"/>
	<path d="M88.4,85.4c-0.1,0-0.2,0.1-0.3,0.2c-0.1,0.1-0.3,0.2-0.5,0.2c-0.2,0.1-0.5,0.1-0.7,0.2s-0.6,0.1-0.9,0.1s-0.6,0-0.9-0.1
		c-0.3-0.1-0.5-0.2-0.7-0.4c-0.2-0.2-0.4-0.4-0.5-0.6c-0.1-0.2-0.2-0.5-0.2-0.9v-8.6h-1.6v-0.9h1.6v-3.9h1.1v3.9h2.7v0.9h-2.7v8.4
		c0,0.4,0.1,0.7,0.4,1c0.3,0.2,0.6,0.3,1,0.3c0.5,0,0.8-0.1,1.2-0.2s0.5-0.3,0.6-0.3L88.4,85.4z"/>
	<path d="M93.1,86.2c-0.5,0-1-0.1-1.5-0.3c-0.5-0.2-0.9-0.4-1.2-0.7s-0.6-0.7-0.8-1.1c-0.2-0.4-0.3-0.9-0.3-1.4c0-0.5,0.1-1,0.4-1.4
		c0.2-0.4,0.6-0.8,1-1.1s0.9-0.5,1.5-0.7c0.6-0.2,1.2-0.3,1.9-0.3c0.6,0,1.2,0.1,1.9,0.2c0.6,0.1,1.2,0.3,1.7,0.5v-1.1
		c0-1.1-0.3-1.9-0.9-2.6c-0.6-0.6-1.5-1-2.5-1c-0.6,0-1.2,0.1-1.8,0.4c-0.6,0.2-1.3,0.6-1.9,1l-0.4-0.7c1.5-1,2.9-1.5,4.2-1.5
		c1.4,0,2.5,0.4,3.3,1.2c0.8,0.8,1.2,1.9,1.2,3.3v5.6c0,0.4,0.2,0.5,0.5,0.5v1c-0.1,0-0.1,0-0.2,0c-0.1,0-0.1,0-0.2,0
		c-0.3,0-0.5-0.1-0.7-0.3s-0.3-0.4-0.3-0.7V84c-0.5,0.7-1.2,1.2-2,1.6C95,86,94.1,86.2,93.1,86.2z M93.4,85.3c0.9,0,1.6-0.2,2.4-0.5
		c0.7-0.3,1.3-0.7,1.6-1.3c0.2-0.3,0.4-0.6,0.4-0.9v-2c-1.1-0.4-2.3-0.6-3.4-0.6c-1.1,0-2.1,0.2-2.8,0.7s-1.1,1.1-1.1,1.8
		c0,0.4,0.1,0.7,0.2,1.1c0.1,0.3,0.4,0.6,0.6,0.9c0.3,0.2,0.6,0.4,0.9,0.6C92.6,85.2,92.9,85.3,93.4,85.3z"/>
	<path d="M102.2,69.9h1.1v13.8c0,0.4,0.1,0.8,0.4,1c0.2,0.3,0.6,0.4,1,0.4c0.2,0,0.4,0,0.6-0.1c0.2,0,0.4-0.1,0.6-0.2l0.2,0.9
		c-0.2,0.1-0.6,0.2-0.9,0.3c-0.4,0.1-0.7,0.1-0.9,0.1c-0.6,0-1.1-0.2-1.5-0.6c-0.4-0.4-0.6-0.9-0.6-1.5V69.9z"/>
</g>
<g>
	<path d="M127.2,85.9V72.4L121,83h-0.7l-6.2-10.5v13.5H113V70.3h1.1l6.5,11.2l6.5-11.2h1.1v15.6H127.2z"/>
	<path d="M136.9,86.2c-0.8,0-1.6-0.2-2.2-0.5c-0.7-0.3-1.3-0.7-1.8-1.3c-0.5-0.5-0.9-1.2-1.2-1.9c-0.3-0.7-0.4-1.5-0.4-2.3
		c0-0.8,0.1-1.6,0.4-2.3c0.3-0.7,0.7-1.3,1.2-1.9c0.5-0.5,1.1-1,1.8-1.3c0.7-0.3,1.4-0.5,2.2-0.5c0.8,0,1.6,0.2,2.2,0.5
		c0.7,0.3,1.3,0.7,1.8,1.3s0.9,1.2,1.2,1.9c0.3,0.7,0.4,1.5,0.4,2.3c0,0.1,0,0.2,0,0.3c0,0.1,0,0.2,0,0.2h-10.1
		c0,0.7,0.2,1.3,0.5,1.8c0.3,0.6,0.6,1.1,1,1.5c0.4,0.4,0.9,0.7,1.4,1c0.5,0.2,1.1,0.4,1.7,0.4c0.4,0,0.8-0.1,1.2-0.2
		c0.4-0.1,0.7-0.3,1.1-0.5c0.3-0.2,0.6-0.4,0.9-0.7c0.3-0.3,0.5-0.6,0.6-0.9l1,0.3c-0.2,0.4-0.4,0.8-0.7,1.1
		c-0.3,0.3-0.7,0.6-1.1,0.9c-0.4,0.3-0.9,0.4-1.4,0.6C138,86.1,137.5,86.2,136.9,86.2z M141.4,79.8c0-0.7-0.2-1.3-0.5-1.8
		s-0.6-1-1-1.4s-0.9-0.7-1.4-0.9c-0.5-0.2-1.1-0.3-1.7-0.3s-1.2,0.1-1.7,0.3c-0.5,0.2-1,0.5-1.4,0.9s-0.7,0.9-1,1.5
		c-0.2,0.6-0.4,1.2-0.4,1.8H141.4z"/>
	<path d="M149.6,86.2c-0.8,0-1.5-0.2-2.2-0.5s-1.3-0.8-1.8-1.3c-0.5-0.5-0.9-1.2-1.1-1.9s-0.4-1.4-0.4-2.2c0-0.8,0.1-1.5,0.4-2.3
		s0.6-1.4,1.1-1.9s1-1,1.7-1.3c0.6-0.3,1.3-0.5,2.1-0.5c0.5,0,1,0.1,1.4,0.2c0.4,0.1,0.9,0.3,1.2,0.6s0.7,0.5,1,0.8
		c0.3,0.3,0.6,0.7,0.8,1v-7.1h1.1v14.5c0,0.4,0.2,0.5,0.5,0.5v1c-0.1,0-0.1,0-0.2,0s-0.1,0-0.2,0c-0.3,0-0.6-0.1-0.8-0.3
		c-0.2-0.2-0.3-0.4-0.3-0.7v-1.3c-0.5,0.8-1.1,1.4-1.9,1.8S150.5,86.2,149.6,86.2z M149.8,85.2c0.4,0,0.8-0.1,1.3-0.2
		s0.9-0.4,1.3-0.7s0.7-0.6,1-1s0.4-0.8,0.5-1.2v-3.8c-0.2-0.4-0.4-0.8-0.7-1.2c-0.3-0.4-0.6-0.7-1-1c-0.4-0.3-0.8-0.5-1.2-0.6
		c-0.4-0.2-0.9-0.2-1.3-0.2c-0.7,0-1.3,0.1-1.8,0.4c-0.5,0.3-1,0.7-1.4,1.1c-0.4,0.5-0.7,1-0.9,1.6s-0.3,1.2-0.3,1.8
		c0,0.7,0.1,1.3,0.4,1.9c0.2,0.6,0.6,1.1,1,1.6s0.9,0.8,1.5,1.1C148.6,85,149.2,85.2,149.8,85.2z"/>
	<path d="M158.5,71.9v-2h1.1v2H158.5z M158.5,85.9V74.5h1.1v11.5H158.5z"/>
	<path d="M165.8,86.2c-0.5,0-1-0.1-1.5-0.3c-0.5-0.2-0.9-0.4-1.2-0.7c-0.3-0.3-0.6-0.7-0.8-1.1c-0.2-0.4-0.3-0.9-0.3-1.4
		c0-0.5,0.1-1,0.4-1.4c0.2-0.4,0.6-0.8,1-1.1s0.9-0.5,1.5-0.7c0.6-0.2,1.2-0.3,1.9-0.3c0.6,0,1.2,0.1,1.9,0.2
		c0.6,0.1,1.2,0.3,1.7,0.5v-1.1c0-1.1-0.3-1.9-0.9-2.6s-1.5-1-2.5-1c-0.6,0-1.2,0.1-1.8,0.4c-0.6,0.2-1.3,0.6-1.9,1l-0.4-0.7
		c1.5-1,2.9-1.5,4.2-1.5c1.4,0,2.5,0.4,3.3,1.2c0.8,0.8,1.2,1.9,1.2,3.3v5.6c0,0.4,0.2,0.5,0.5,0.5v1c-0.1,0-0.1,0-0.2,0
		c-0.1,0-0.1,0-0.2,0c-0.3,0-0.5-0.1-0.7-0.3c-0.2-0.2-0.3-0.4-0.3-0.7V84c-0.5,0.7-1.2,1.2-2,1.6C167.6,86,166.8,86.2,165.8,86.2z
		 M166,85.3c0.9,0,1.6-0.2,2.4-0.5c0.7-0.3,1.3-0.7,1.6-1.3c0.2-0.3,0.4-0.6,0.4-0.9v-2c-1.1-0.4-2.3-0.6-3.4-0.6
		c-1.1,0-2.1,0.2-2.8,0.7c-0.7,0.5-1.1,1.1-1.1,1.8c0,0.4,0.1,0.7,0.2,1.1c0.1,0.3,0.4,0.6,0.6,0.9c0.3,0.2,0.6,0.4,0.9,0.6
		C165.2,85.2,165.6,85.3,166,85.3z"/>
</g>
<g>
	<path d="M189.3,72.9c-1-1.1-2.4-1.7-4.3-1.7c-1.5,0-2.6,0.3-3.3,0.9c-0.7,0.6-1,1.4-1,2.3c0,0.5,0.1,0.9,0.3,1.3
		c0.2,0.3,0.5,0.6,0.8,0.8s0.9,0.4,1.4,0.6c0.6,0.2,1.3,0.3,2.1,0.5c0.9,0.2,1.6,0.4,2.3,0.6c0.7,0.2,1.3,0.5,1.7,0.8
		c0.5,0.3,0.8,0.7,1.1,1.2s0.4,1,0.4,1.7c0,0.7-0.1,1.3-0.4,1.8c-0.3,0.5-0.7,0.9-1.1,1.3c-0.5,0.3-1.1,0.6-1.8,0.8
		c-0.7,0.2-1.4,0.3-2.3,0.3c-2.4,0-4.5-0.8-6.2-2.3l0.6-0.9c0.7,0.7,1.5,1.2,2.4,1.6c1,0.4,2,0.6,3.2,0.6c1.4,0,2.4-0.3,3.2-0.7
		c0.8-0.5,1.2-1.3,1.2-2.3c0-0.5-0.1-1-0.3-1.3c-0.2-0.4-0.5-0.7-0.9-0.9c-0.4-0.3-0.9-0.5-1.5-0.7s-1.3-0.4-2.1-0.6
		c-0.8-0.2-1.6-0.4-2.2-0.6c-0.6-0.2-1.2-0.4-1.6-0.7s-0.8-0.7-1-1.1c-0.2-0.4-0.3-1-0.3-1.6c0-0.7,0.1-1.3,0.4-1.9
		c0.3-0.5,0.6-1,1.1-1.4c0.5-0.4,1.1-0.7,1.7-0.8c0.7-0.2,1.4-0.3,2.2-0.3c1,0,1.9,0.2,2.7,0.5c0.8,0.3,1.5,0.8,2.2,1.4L189.3,72.9z
		"/>
	<path d="M198.1,86.2c-0.8,0-1.6-0.2-2.2-0.5c-0.7-0.3-1.3-0.7-1.8-1.3s-0.9-1.2-1.2-1.9c-0.3-0.7-0.4-1.5-0.4-2.3
		c0-0.8,0.1-1.6,0.4-2.3c0.3-0.7,0.7-1.4,1.2-1.9c0.5-0.5,1.1-1,1.8-1.3c0.7-0.3,1.4-0.5,2.2-0.5s1.5,0.2,2.2,0.5
		c0.7,0.3,1.3,0.7,1.8,1.3c0.5,0.5,0.9,1.2,1.2,1.9c0.3,0.7,0.4,1.5,0.4,2.3c0,0.8-0.1,1.5-0.4,2.3c-0.3,0.7-0.7,1.4-1.2,1.9
		c-0.5,0.5-1.1,1-1.8,1.3C199.6,86,198.9,86.2,198.1,86.2z M193.6,80.3c0,0.7,0.1,1.3,0.4,1.9c0.2,0.6,0.6,1.1,1,1.6
		c0.4,0.4,0.9,0.8,1.4,1s1.1,0.4,1.7,0.4s1.2-0.1,1.7-0.4s1-0.6,1.4-1.1c0.4-0.5,0.7-1,1-1.6c0.2-0.6,0.4-1.2,0.4-1.9
		c0-0.7-0.1-1.3-0.4-1.9c-0.2-0.6-0.6-1.1-1-1.6c-0.4-0.4-0.9-0.8-1.4-1.1c-0.5-0.3-1.1-0.4-1.7-0.4c-0.6,0-1.2,0.1-1.7,0.4
		c-0.5,0.3-1,0.6-1.4,1.1c-0.4,0.5-0.7,1-1,1.6C193.7,79,193.6,79.6,193.6,80.3z"/>
	<path d="M206.4,69.9h1.1v13.8c0,0.4,0.1,0.8,0.4,1s0.6,0.4,1,0.4c0.2,0,0.4,0,0.6-0.1c0.2,0,0.4-0.1,0.6-0.2l0.2,0.9
		c-0.3,0.1-0.6,0.2-0.9,0.3c-0.4,0.1-0.7,0.1-0.9,0.1c-0.6,0-1.1-0.2-1.5-0.6c-0.4-0.4-0.6-0.9-0.6-1.5V69.9z"/>
	<path d="M215.3,86.2c-2.5,0-3.7-1.7-3.7-5.1v-6.6h1.1v6.5c0,2.8,1,4.2,2.9,4.2c0.5,0,1-0.1,1.4-0.3c0.5-0.2,0.9-0.4,1.3-0.7
		s0.7-0.7,1-1.1s0.5-0.9,0.7-1.4v-7.2h1.1v9.9c0,0.4,0.2,0.5,0.5,0.5v1c-0.1,0-0.2,0-0.2,0s-0.1,0-0.2,0c-0.3,0-0.6-0.1-0.8-0.3
		s-0.3-0.4-0.3-0.7v-1.7c-0.5,0.9-1.2,1.6-2.1,2.2C217.3,85.9,216.3,86.2,215.3,86.2z"/>
	<path d="M229.8,85.4c-0.1,0-0.2,0.1-0.3,0.2c-0.1,0.1-0.3,0.2-0.5,0.2c-0.2,0.1-0.5,0.1-0.7,0.2s-0.6,0.1-0.9,0.1
		c-0.3,0-0.6,0-0.9-0.1s-0.5-0.2-0.7-0.4c-0.2-0.2-0.4-0.4-0.5-0.6c-0.1-0.2-0.2-0.5-0.2-0.9v-8.6h-1.6v-0.9h1.6v-3.9h1.1v3.9h2.7
		v0.9h-2.7v8.4c0,0.4,0.1,0.7,0.4,1c0.3,0.2,0.6,0.3,1,0.3c0.5,0,0.8-0.1,1.2-0.2s0.5-0.3,0.6-0.3L229.8,85.4z"/>
	<path d="M231.7,71.9v-2h1.1v2H231.7z M231.7,85.9V74.5h1.1v11.5H231.7z"/>
	<path d="M241,86.2c-0.8,0-1.6-0.2-2.2-0.5c-0.7-0.3-1.3-0.7-1.8-1.3s-0.9-1.2-1.2-1.9c-0.3-0.7-0.4-1.5-0.4-2.3
		c0-0.8,0.1-1.6,0.4-2.3c0.3-0.7,0.7-1.4,1.2-1.9c0.5-0.5,1.1-1,1.8-1.3c0.7-0.3,1.4-0.5,2.2-0.5s1.5,0.2,2.2,0.5
		c0.7,0.3,1.3,0.7,1.8,1.3c0.5,0.5,0.9,1.2,1.2,1.9c0.3,0.7,0.4,1.5,0.4,2.3c0,0.8-0.1,1.5-0.4,2.3c-0.3,0.7-0.7,1.4-1.2,1.9
		c-0.5,0.5-1.1,1-1.8,1.3C242.5,86,241.8,86.2,241,86.2z M236.5,80.3c0,0.7,0.1,1.3,0.4,1.9c0.2,0.6,0.6,1.1,1,1.6
		c0.4,0.4,0.9,0.8,1.4,1s1.1,0.4,1.7,0.4s1.2-0.1,1.7-0.4s1-0.6,1.4-1.1c0.4-0.5,0.7-1,1-1.6c0.2-0.6,0.4-1.2,0.4-1.9
		c0-0.7-0.1-1.3-0.4-1.9c-0.2-0.6-0.6-1.1-1-1.6c-0.4-0.4-0.9-0.8-1.4-1.1c-0.5-0.3-1.1-0.4-1.7-0.4c-0.6,0-1.2,0.1-1.7,0.4
		c-0.5,0.3-1,0.6-1.4,1.1c-0.4,0.5-0.7,1-1,1.6C236.7,79,236.5,79.6,236.5,80.3z"/>
	<path d="M258.6,85.9h-1.1v-6.4c0-1.5-0.2-2.6-0.6-3.2c-0.4-0.7-1.1-1-2-1c-0.5,0-1,0.1-1.4,0.3c-0.5,0.2-0.9,0.4-1.3,0.7
		c-0.4,0.3-0.8,0.7-1.1,1.1c-0.3,0.4-0.5,0.9-0.7,1.4v7.1h-1.1V74.5h1v2.7c0.2-0.4,0.5-0.8,0.9-1.2c0.4-0.4,0.7-0.7,1.2-0.9
		c0.4-0.3,0.9-0.5,1.4-0.6c0.5-0.1,1-0.2,1.5-0.2c1.2,0,2.1,0.4,2.6,1.3c0.5,0.9,0.8,2.1,0.8,3.8V85.9z"/>
</g>
<polygon class="st1" points="23.6,55.8 23.9,56.3 39,56.3 62.7,0 45.3,0 40.9,11.2 "/>
<rect x="68" class="st1" width="15.1" height="56.3"/>
<path class="st1" d="M138.4,52.5c2.8-2.6,4.2-6.1,4.2-10.5v-6.5c0-4.7-1.3-8.1-4-10.1c-2.4-1.8-6.1-2.7-11.1-2.7h-19.7
	c-2.9,0-4.3-1.6-4.3-4.8v-0.1c0-1.3,0.4-2.4,1.1-3.4c0.7-1,1.7-1.5,2.9-1.5h35.2V0h-39.2c-5,0-8.7,0.9-11.1,2.7c-2.7,2-4,5.4-4,10.1
	v7.1c0,4.5,1.4,8,4.2,10.6c2.8,2.6,6.5,3.8,10.9,3.8h20.1c2.6,0.5,3.9,2.1,3.9,4.8v0.1c0,3.1-1.4,4.7-4.3,4.7H88.3v12.4h39.1
	C131.9,56.3,135.5,55.1,138.4,52.5"/>
<path class="st1" d="M299.9,56.3v-42c0-4.6-1.4-8.2-4.2-10.8c-2.7-2.4-6.3-3.6-11-3.6H207v56.3h15.1V12.8h17.1
	c2.3,0,3.9,0.4,4.9,1.1c1.2,0.8,1.8,2.3,1.8,4.4v38.1H261V12.8h17.1c2.3,0,3.9,0.4,4.9,1.1c1.2,0.8,1.8,2.3,1.8,4.4v38.1H299.9z"/>
<g>
	<defs>
		<polygon id="SVGID_1_" points="17.4,0 0,0 23.6,55.7 31.5,35.4 		"/>
	</defs>
	<clipPath id="SVGID_2_">
		<use xlink:href="#SVGID_1_"  style="overflow:visible;"/>
	</clipPath>
	
		<linearGradient id="SVGID_3_" gradientUnits="userSpaceOnUse" x1="-271.2397" y1="354.2358" x2="-270.4398" y2="354.2358" gradientTransform="matrix(66.1254 25.6484 -25.8958 66.7634 27094.7266 -16677)">
		<stop  offset="0" style="stop-color:#F58220"/>
		<stop  offset="0.49" style="stop-color:#DD741F"/>
		<stop  offset="1" style="stop-color:#C7691C"/>
	</linearGradient>
	<polygon class="st0" points="-18.8,48.4 27.3,66.3 50.2,7.3 4.1,-10.6 	"/>
</g>
<path class="st1" d="M186.3,43.5V12.8h-17.1c-2.2,0-3.8,0.4-4.8,1.1c-1.2,0.8-1.8,2.3-1.8,4.4v2.3v17.5c0,2.1,0.6,3.5,1.8,4.4
	c1,0.7,2.6,1.1,4.8,1.1H186.3z M162.5,0h23.7v0h15.1v0v56.3v0h-15.1v0h-23.7v0h-15.1V42V20.6v-6.2c0-4.6,1.4-8.2,4.1-10.7
	C154.2,1.2,157.9,0,162.5,0z"/>
</svg>
